<mxfile host="app.diagrams.net" modified="2022-04-19T08:35:40.262Z" agent="5.0 (Windows NT 10.0; Win64; x64) AppleWebKit/537.36 (KHTML, like Gecko) Chrome/100.0.4896.127 Safari/537.36" etag="H1Mlfvo-VmtAbtOijGUi" version="17.4.5" type="github">
  <diagram id="UJMsLFa42X8FvGDw-vX3" name="Page-1">
    <mxGraphModel dx="1422" dy="762" grid="1" gridSize="10" guides="1" tooltips="1" connect="1" arrows="1" fold="1" page="1" pageScale="1" pageWidth="827" pageHeight="1169" math="0" shadow="0">
      <root>
        <mxCell id="0" />
        <mxCell id="1" parent="0" />
        <mxCell id="ZsuB_UANE7rcjaerfHN0-3" value="实时数据大屏" style="rounded=1;whiteSpace=wrap;html=1;" vertex="1" parent="1">
          <mxGeometry x="200" y="280" width="430" height="60" as="geometry" />
        </mxCell>
        <mxCell id="ZsuB_UANE7rcjaerfHN0-4" value="数据可视化" style="text;html=1;strokeColor=none;fillColor=none;align=center;verticalAlign=middle;whiteSpace=wrap;rounded=0;" vertex="1" parent="1">
          <mxGeometry x="100" y="300" width="80" height="30" as="geometry" />
        </mxCell>
        <mxCell id="ZsuB_UANE7rcjaerfHN0-11" value="" style="edgeStyle=orthogonalEdgeStyle;rounded=0;orthogonalLoop=1;jettySize=auto;html=1;" edge="1" parent="1" source="ZsuB_UANE7rcjaerfHN0-5" target="ZsuB_UANE7rcjaerfHN0-3">
          <mxGeometry relative="1" as="geometry" />
        </mxCell>
        <mxCell id="ZsuB_UANE7rcjaerfHN0-5" value="实时数据中台" style="rounded=1;whiteSpace=wrap;html=1;" vertex="1" parent="1">
          <mxGeometry x="200" y="400" width="430" height="60" as="geometry" />
        </mxCell>
        <mxCell id="ZsuB_UANE7rcjaerfHN0-6" value="数据处理" style="text;html=1;strokeColor=none;fillColor=none;align=center;verticalAlign=middle;whiteSpace=wrap;rounded=0;" vertex="1" parent="1">
          <mxGeometry x="100" y="420" width="60" height="30" as="geometry" />
        </mxCell>
        <mxCell id="ZsuB_UANE7rcjaerfHN0-9" value="" style="edgeStyle=orthogonalEdgeStyle;rounded=0;orthogonalLoop=1;jettySize=auto;html=1;" edge="1" parent="1" source="ZsuB_UANE7rcjaerfHN0-7" target="ZsuB_UANE7rcjaerfHN0-5">
          <mxGeometry relative="1" as="geometry" />
        </mxCell>
        <mxCell id="ZsuB_UANE7rcjaerfHN0-7" value="MySQL&amp;nbsp; &amp;nbsp; &amp;nbsp; &amp;nbsp;ES&amp;nbsp; &amp;nbsp; MongoDB&amp;nbsp; &amp;nbsp;HTTP&amp;nbsp; &amp;nbsp; &amp;nbsp; &amp;nbsp;" style="rounded=1;whiteSpace=wrap;html=1;" vertex="1" parent="1">
          <mxGeometry x="200" y="520" width="430" height="65" as="geometry" />
        </mxCell>
        <mxCell id="ZsuB_UANE7rcjaerfHN0-8" value="数据源" style="text;html=1;strokeColor=none;fillColor=none;align=center;verticalAlign=middle;whiteSpace=wrap;rounded=0;" vertex="1" parent="1">
          <mxGeometry x="100" y="545" width="60" height="30" as="geometry" />
        </mxCell>
        <mxCell id="ZsuB_UANE7rcjaerfHN0-10" value="日志实时解析" style="text;html=1;strokeColor=none;fillColor=none;align=center;verticalAlign=middle;whiteSpace=wrap;rounded=0;" vertex="1" parent="1">
          <mxGeometry x="314" y="480" width="100" height="30" as="geometry" />
        </mxCell>
      </root>
    </mxGraphModel>
  </diagram>
</mxfile>
